<svg xmlns="http://www.w3.org/2000/svg" width="200.17" height="46" viewBox="0 0 200.17 46">
  <g id="Cardflight-logo" transform="translate(-0.469 -1.663)">
    <g id="Group_4470" data-name="Group 4470" transform="translate(22.552 6.726)">
      <path id="Path_18" data-name="Path 18" d="M11.34,18.912s.447-5.444,4.9-7.15c4.692-1.5,20.8-7.272,21.431-7.455,1.381-.427,3.636.041,3.25,1.544-.609,2.5-1.117,4.55-1.117,4.55Z" transform="translate(-11.34 -4.156)" fill="#206bb4"/>
    </g>
    <path id="Path_19" data-name="Path 19" d="M12.229,16.437,9.995,24.786s-.325,2.377,2.945,1.991c3.25-.406,20.252-4.164,20.252-4.164s3.575-.67,4.449-2.9c.183-.488,1.32-3.778,1.32-3.778l.183-.711L40.952,8.21Z" transform="translate(9.815 6.752)" fill="#206bb4"/>
    <path id="Path_20" data-name="Path 20" d="M1.46,6.369,19.884,20.65s1.869-5.281-.183-7.394S4.385,1.758,4.385,1.758s-1.3-.427-1.727.528a17.791,17.791,0,0,0-1.2,4.083" transform="translate(1.022)" fill="#206bb4"/>
    <path id="Path_21" data-name="Path 21" d="M2.137,4.7l18.3,14.463-2.316,8.369a1.411,1.411,0,0,1-1.93.813c-.589-.427-14.2-11.558-14.2-11.558A3.951,3.951,0,0,1,.532,13.13" transform="translate(0 3.132)" fill="#206bb4"/>
    <g id="Group_4471" data-name="Group 4471" transform="translate(6.421 2.284)">
      <path id="Path_22" data-name="Path 22" d="M9.465,8.634l.792-2.844,17.205,2.7-.752,2.681,3.636-1.219a8.442,8.442,0,0,0,.467-3.311A2.891,2.891,0,0,0,28.5,4.266c-.853-.142-16.88-2.3-16.88-2.3a3.57,3.57,0,0,0-2.458.813A11.882,11.882,0,0,0,7.8,5c-.142.3-.589,1.95-.589,1.95Z" transform="translate(0.531 -1.969)" fill="#2c2f30"/>
      <path id="Path_23" data-name="Path 23" d="M3.543,23.213c-.752,4.449,1.686,5.078,1.686,5.078s14.829,6.216,15.3,6.439A3.808,3.808,0,0,0,21.7,35c2.377.264,3.433-2.641,3.433-2.641l3.23-12.168-3.575.711-1.666,5.871L6.874,20.9l1.32-5.3L5.981,13.93Z" transform="translate(-3.399 10.367)" fill="#2c2f30"/>
      <path id="Path_24" data-name="Path 24" d="M13.077,22.961a1.212,1.212,0,0,1-1.584.67l-3.8-1.544a1.212,1.212,0,0,1-.67-1.584,1.229,1.229,0,0,1,1.584-.67l3.8,1.524a1.257,1.257,0,0,1,.67,1.6" transform="translate(0.25 16.368)" fill="#fff"/>
    </g>
    <g id="Group_4472" data-name="Group 4472" transform="translate(57.572 12.788)">
      <path id="Path_25" data-name="Path 25" d="M38.716,32.7a10.415,10.415,0,0,1-4.246-.813,8.6,8.6,0,0,1-3.189-2.377,10.774,10.774,0,0,1-2.011-3.839,17.526,17.526,0,0,1-.691-5.2,15.111,15.111,0,0,1,.813-5.2,11.8,11.8,0,0,1,2.194-3.839,9.1,9.1,0,0,1,3.27-2.377A9.983,9.983,0,0,1,38.9,8.24a12.119,12.119,0,0,1,2.377.223,14.137,14.137,0,0,1,1.849.488,7.271,7.271,0,0,1,1.3.569c.345.2.589.345.731.447L44.039,13.44a8.312,8.312,0,0,0-2.072-.955,9.014,9.014,0,0,0-2.925-.447,6.341,6.341,0,0,0-2.559.528,5.487,5.487,0,0,0-2.052,1.564,7.708,7.708,0,0,0-1.361,2.641,12.5,12.5,0,0,0-.488,3.677,13.818,13.818,0,0,0,.386,3.413,7.689,7.689,0,0,0,1.178,2.681,5.373,5.373,0,0,0,2.011,1.747,6.219,6.219,0,0,0,2.925.63,10.022,10.022,0,0,0,3.311-.447,13.041,13.041,0,0,0,1.97-.853L45.4,31.093a4.842,4.842,0,0,1-1,.548,15.079,15.079,0,0,1-1.483.528,14.226,14.226,0,0,1-1.909.406C40.281,32.636,39.529,32.7,38.716,32.7Z" transform="translate(-28.58 -6.006)" fill="#206bb4"/>
      <path id="Path_26" data-name="Path 26" d="M44.419,11.12a8.009,8.009,0,0,1,3.067.508,5.011,5.011,0,0,1,1.991,1.422,5.479,5.479,0,0,1,1.056,2.214,12.424,12.424,0,0,1,.325,2.844V28.813Q50,29.026,48.3,29.3a24.617,24.617,0,0,1-3.88.284,10.544,10.544,0,0,1-2.62-.3,5.166,5.166,0,0,1-2.011-.975,4.539,4.539,0,0,1-1.3-1.747A6.787,6.787,0,0,1,38.02,23.9a5.685,5.685,0,0,1,.528-2.559,4.7,4.7,0,0,1,1.442-1.706,6.077,6.077,0,0,1,2.113-.955,11.078,11.078,0,0,1,2.5-.284,9.416,9.416,0,0,1,1.28.081,10.346,10.346,0,0,1,1.422.284v-.67a7.135,7.135,0,0,0-.142-1.341,3.084,3.084,0,0,0-.528-1.138,2.491,2.491,0,0,0-1-.752,3.867,3.867,0,0,0-1.564-.264,11.912,11.912,0,0,0-2.336.2,9.775,9.775,0,0,0-1.727.467l-.447-3.311A13.007,13.007,0,0,1,41.6,11.4,13.563,13.563,0,0,1,44.419,11.12ZM44.7,26.355a11.824,11.824,0,0,0,2.58-.2v-4.53a6.338,6.338,0,0,0-.873-.2,8.174,8.174,0,0,0-1.28-.1,8.731,8.731,0,0,0-1.239.1,3.289,3.289,0,0,0-1.117.366,2.217,2.217,0,0,0-.813.752,2.286,2.286,0,0,0-.3,1.239,2.238,2.238,0,0,0,.813,2.011A4.09,4.09,0,0,0,44.7,26.355Z" transform="translate(-18.844 -3.035)" fill="#206bb4"/>
      <path id="Path_27" data-name="Path 27" d="M55.039,15.192a9.485,9.485,0,0,0-1.259-.345,8.437,8.437,0,0,0-1.869-.183,6.051,6.051,0,0,0-1.3.142,4.779,4.779,0,0,0-.955.244V29.188H46v-16.8a20.005,20.005,0,0,1,2.661-.833A14.607,14.607,0,0,1,52.2,11.17c.244,0,.528.02.853.041.325.041.65.081.975.142s.63.122.934.2a5.408,5.408,0,0,1,.731.223Z" transform="translate(-10.614 -2.984)" fill="#206bb4"/>
      <path id="Path_28" data-name="Path 28" d="M65.591,32.776a20.883,20.883,0,0,1-2.742.67,19.058,19.058,0,0,1-3.474.3A8.46,8.46,0,0,1,56,33.1a6.949,6.949,0,0,1-2.539-1.849,8.207,8.207,0,0,1-1.6-2.9,12.5,12.5,0,0,1-.569-3.839,14.625,14.625,0,0,1,.467-3.8,8.485,8.485,0,0,1,1.381-2.925,6.1,6.1,0,0,1,2.214-1.869,6.484,6.484,0,0,1,3.006-.65,6.193,6.193,0,0,1,2.031.3,8.985,8.985,0,0,1,1.524.67V7.81l3.677-.67V32.776ZM55.048,24.447a6.828,6.828,0,0,0,1.158,4.225A3.793,3.793,0,0,0,59.4,30.216a10.609,10.609,0,0,0,1.5-.081c.406-.061.752-.122,1.016-.183V19.836a5.118,5.118,0,0,0-1.3-.691,4.4,4.4,0,0,0-1.706-.325,3.155,3.155,0,0,0-2.925,1.524A7.673,7.673,0,0,0,55.048,24.447Z" transform="translate(-5.158 -7.14)" fill="#206bb4"/>
      <path id="Path_29" data-name="Path 29" d="M60.2,31.911V8.51H73.505v3.616H64.039V18.1h8.41v3.616h-8.41v10.2H60.2Z" transform="translate(4.031 -5.727)" fill="#2c2f30"/>
      <path id="Path_30" data-name="Path 30" d="M73.816,33.649a9.16,9.16,0,0,1-2.722-.406,4.08,4.08,0,0,1-1.706-1.056,3.8,3.8,0,0,1-.894-1.727,10.128,10.128,0,0,1-.264-2.336V7.81l3.677-.67V27.352a6.913,6.913,0,0,0,.1,1.239,1.838,1.838,0,0,0,.386.853,1.615,1.615,0,0,0,.752.548,4.952,4.952,0,0,0,1.2.284Z" transform="translate(12.313 -7.14)" fill="#2c2f30"/>
      <path id="Path_31" data-name="Path 31" d="M77.38,10.079a2.47,2.47,0,0,1-.67,1.828,2.232,2.232,0,0,1-3.189,0,2.47,2.47,0,0,1-.67-1.828,2.488,2.488,0,0,1,.67-1.849,2.232,2.232,0,0,1,3.189,0A2.488,2.488,0,0,1,77.38,10.079Zm-.406,22.812H73.3V15.238h3.677Z" transform="translate(17.078 -6.707)" fill="#2c2f30"/>
      <path id="Path_32" data-name="Path 32" d="M90.917,27.4c0,2.8-.65,4.875-1.93,6.175s-3.25,1.95-5.911,1.95a14.67,14.67,0,0,1-2.844-.264,15.828,15.828,0,0,1-2.5-.711l.67-3.474a11.414,11.414,0,0,0,2.133.711,11.624,11.624,0,0,0,2.6.264,4.122,4.122,0,0,0,3.149-1.016,4.267,4.267,0,0,0,.934-3.006v-.67a9.321,9.321,0,0,1-1.442.609,6.32,6.32,0,0,1-2.052.3,6.943,6.943,0,0,1-2.783-.548,5.94,5.94,0,0,1-2.153-1.584,7.651,7.651,0,0,1-1.4-2.62,12.179,12.179,0,0,1-.508-3.636,11.516,11.516,0,0,1,.528-3.535,7.625,7.625,0,0,1,1.544-2.763A6.876,6.876,0,0,1,81.43,11.8a8.16,8.16,0,0,1,3.311-.65,18.009,18.009,0,0,1,3.392.3,22.991,22.991,0,0,1,2.742.65V27.4Zm-10.238-7.5a5.858,5.858,0,0,0,1.016,3.8,3.307,3.307,0,0,0,2.62,1.2,4.82,4.82,0,0,0,1.645-.264,4.3,4.3,0,0,0,1.259-.65V14.847q-.4-.091-.975-.183a9.829,9.829,0,0,0-1.463-.081,3.556,3.556,0,0,0-3.067,1.463A6.677,6.677,0,0,0,80.679,19.905Z" transform="translate(21.234 -3.004)" fill="#2c2f30"/>
      <path id="Path_33" data-name="Path 33" d="M85.79,33.324V7.81l3.677-.67v8.735a9.308,9.308,0,0,1,1.422-.406,7.117,7.117,0,0,1,1.584-.163,7.542,7.542,0,0,1,3.169.589,5.177,5.177,0,0,1,2.011,1.645A6.674,6.674,0,0,1,98.73,20.08a16.481,16.481,0,0,1,.325,3.311V33.3H95.378V24.02a16.151,16.151,0,0,0-.163-2.417,4.246,4.246,0,0,0-.548-1.625,2.329,2.329,0,0,0-1.016-.914,4.019,4.019,0,0,0-1.584-.284,7.528,7.528,0,0,0-1.483.163c-.508.122-.873.223-1.117.3V33.283H85.79Z" transform="translate(30.423 -7.14)" fill="#2c2f30"/>
      <path id="Path_34" data-name="Path 34" d="M94.1,9.39l3.677-.67v5.322h5.647v3.413H97.777v7.191a5.709,5.709,0,0,0,.609,3.047,2.3,2.3,0,0,0,2.072.914,5.806,5.806,0,0,0,1.767-.244,11.473,11.473,0,0,0,1.239-.447l.609,3.23a14.061,14.061,0,0,1-1.666.63,8.638,8.638,0,0,1-2.438.325,6.917,6.917,0,0,1-2.844-.508,4.443,4.443,0,0,1-1.808-1.463,6.2,6.2,0,0,1-.934-2.336,16.057,16.057,0,0,1-.264-3.128V9.39Z" transform="translate(38.994 -5.51)" fill="#2c2f30"/>
    </g>
  </g>
</svg>
